<?xml version="1.0" encoding="UTF-8" standalone="no"?>
<svg
   width="720"
   height="540"
   xml:space="preserve"
   overflow="hidden"
   version="1.1"
   id="svg5"
   sodipodi:docname="icon_cli.svg"
   inkscape:version="1.4 (86a8ad7, 2024-10-11)"
   inkscape:export-filename="icon_cli.png"
   inkscape:export-xdpi="96"
   inkscape:export-ydpi="96"
   viewBox="0 0 800 600.00001"
   xmlns:inkscape="http://www.inkscape.org/namespaces/inkscape"
   xmlns:sodipodi="http://sodipodi.sourceforge.net/DTD/sodipodi-0.dtd"
   xmlns="http://www.w3.org/2000/svg"
   xmlns:svg="http://www.w3.org/2000/svg"><sodipodi:namedview
     id="namedview1"
     pagecolor="#ffffff"
     bordercolor="#000000"
     borderopacity="0.25"
     inkscape:showpageshadow="2"
     inkscape:pageopacity="0.0"
     inkscape:pagecheckerboard="0"
     inkscape:deskcolor="#d1d1d1"
     inkscape:zoom="0.35664698"
     inkscape:cx="722.00246"
     inkscape:cy="-93.930417"
     inkscape:window-width="1920"
     inkscape:window-height="1009"
     inkscape:window-x="1912"
     inkscape:window-y="-8"
     inkscape:window-maximized="1"
     inkscape:current-layer="svg5" /><defs
     id="defs1"><filter
       id="fx0"
       x="-23.700001"
       y="-42.100002"
       width="284.40002"
       height="505.20001"
       filterUnits="userSpaceOnUse"
       primitiveUnits="userSpaceOnUse"><feComponentTransfer
         color-interpolation-filters="sRGB"
         id="feComponentTransfer1"><feFuncR
           type="discrete"
           tableValues="0 0"
           id="feFuncR1" /><feFuncG
           type="discrete"
           tableValues="0 0"
           id="feFuncG1" /><feFuncB
           type="discrete"
           tableValues="0 0"
           id="feFuncB1" /><feFuncA
           type="linear"
           slope="0.4"
           intercept="0"
           id="feFuncA1" /></feComponentTransfer><feGaussianBlur
         stdDeviation="6.11111 6.11111"
         id="feGaussianBlur1" /></filter><clipPath
       id="clip2"><path
         d="m 2263.5,164.5 -185,178.5 185,178.5 z M 2061,142 h 237 v 421 h -237 z"
         fill-rule="evenodd"
         clip-rule="evenodd"
         id="path1" /></clipPath><filter
       id="fx0-6"
       x="-30"
       y="-15"
       width="360"
       height="180"
       filterUnits="userSpaceOnUse"
       primitiveUnits="userSpaceOnUse"><feComponentTransfer
         color-interpolation-filters="sRGB"
         id="feComponentTransfer1-0"><feFuncR
           type="discrete"
           tableValues="0 0"
           id="feFuncR1-6" /><feFuncG
           type="discrete"
           tableValues="0 0"
           id="feFuncG1-4" /><feFuncB
           type="discrete"
           tableValues="0 0"
           id="feFuncB1-8" /><feFuncA
           type="linear"
           slope="0.4"
           intercept="0"
           id="feFuncA1-3" /></feComponentTransfer><feGaussianBlur
         stdDeviation="6.11111 6.11111"
         id="feGaussianBlur1-7" /></filter><clipPath
       clipPathUnits="userSpaceOnUse"
       id="clipPath6"><g
         id="g7"><rect
           x="264.13901"
           y="196.97896"
           width="237"
           height="421"
           id="rect6" /></g></clipPath><clipPath
       clipPathUnits="userSpaceOnUse"
       id="clipPath7"><g
         id="g8"
         transform="translate(1796.861,-54.978951)"><rect
           x="264.13901"
           y="196.97896"
           width="237"
           height="421"
           id="rect7" /></g></clipPath><clipPath
       clipPathUnits="userSpaceOnUse"
       id="clipPath9"><g
         id="g10"
         transform="translate(-1210,-951)"><path
           d="m 1371.73,966.872 v 145.858 h -145.86 v 109.55 h 145.86 v 145.85 h 109.54 v -145.85 h 145.86 V 1112.73 H 1481.27 V 966.872 Z M 1211,952 h 450 v 450 h -450 z"
           fill-rule="evenodd"
           clip-rule="evenodd"
           id="path9" /></g></clipPath><clipPath
       clipPathUnits="userSpaceOnUse"
       id="clipPath11"><g
         id="g12"><rect
           x="371.87729"
           y="-3.5531013"
           width="324.90781"
           height="324.90781"
           id="rect11"
           style="stroke-width:1" /></g></clipPath><clipPath
       clipPathUnits="userSpaceOnUse"
       id="clipPath840"><path
         d="M 0,0 H 10 V 10 H 0 Z"
         id="path838" /></clipPath><clipPath
       clipPathUnits="userSpaceOnUse"
       id="clipPath954"><path
         d="M 0,0 H 10 V 10 H 0 Z"
         id="path952" /></clipPath><clipPath
       clipPathUnits="userSpaceOnUse"
       id="clipPath1066"><path
         d="M 0,595.28 H 841.89 V 0 H 0 Z"
         id="path1064" /></clipPath></defs><rect
     style="fill:#c8c8c8;fill-opacity:1;stroke-width:60;stroke-linecap:round;stroke-linejoin:round;stroke-miterlimit:8;paint-order:markers fill stroke"
     id="rect8"
     width="800"
     height="480"
     x="0"
     y="120" /><rect
     style="fill:#000000;stroke-width:60;stroke-linecap:round;stroke-linejoin:round;stroke-miterlimit:8;paint-order:markers fill stroke"
     id="rect1"
     width="800"
     height="120"
     x="0"
     y="0" /><rect
     style="fill:#c8c8c8;fill-opacity:1;stroke-width:60;stroke-linecap:round;stroke-linejoin:round;stroke-miterlimit:8;paint-order:markers fill stroke"
     id="rect2"
     width="60"
     height="60"
     x="470"
     y="30" /><rect
     style="fill:#c8c8c8;fill-opacity:1;stroke-width:60;stroke-linecap:round;stroke-linejoin:round;stroke-miterlimit:8;paint-order:markers fill stroke"
     id="rect3"
     width="60"
     height="60"
     x="590"
     y="30" /><rect
     style="fill:#c8c8c8;fill-opacity:1;stroke-width:60;stroke-linecap:round;stroke-linejoin:round;stroke-miterlimit:8;paint-order:markers fill stroke"
     id="rect4"
     width="60"
     height="60"
     x="710"
     y="30" /><path
     d="M 200.00015,337.92408 40.000129,480.00004 V 430.99699 L 159.8141,328.38658 V 326.4133 L 40.000129,209.33218 V 160.00024 L 200.00015,318.52018 Z"
     id="text4"
     style="font-size:506.593px;font-family:'Segoe UI';-inkscape-font-specification:'Segoe UI, Normal';stroke-width:60;stroke-linecap:round;stroke-linejoin:round;stroke-miterlimit:8;paint-order:markers fill stroke"
     aria-label="&gt;" /><rect
     style="fill:#ffffff;fill-opacity:1;stroke-width:60;stroke-linecap:round;stroke-linejoin:round;stroke-miterlimit:8;paint-order:markers fill stroke"
     id="rect9"
     width="480"
     height="480"
     x="320"
     y="120.00001" /><g
     id="g832"
     transform="matrix(0.15438597,0,0,-0.15438597,112.79358,432.72639)"
     style="stroke-width:0.863636"><g
       id="g834"
       style="stroke-width:0.863636"><g
         id="g836"
         clip-path="url(#clipPath840)"
         style="stroke-width:0.863636" /></g><g
       id="g842"
       transform="matrix(5776.8,0,0,2066.4,0,4.739e-5)"
       style="stroke-width:0.863636"><g
         id="g946"
         transform="matrix(1.731062e-4,0,0,4.8393337e-4,0.13619139,-0.76683085)"
         style="stroke-width:0.863636"><g
           id="g948"
           style="stroke-width:0.863636"><g
             id="g950"
             clip-path="url(#clipPath954)"
             style="stroke-width:0.863636" /></g><g
           id="g956"
           transform="matrix(8046.4008,0,0,2878.2514,-5747.621,-2569.0551)"
           style="stroke-width:0.620034"><g
             id="g1062"
             clip-path="url(#clipPath1066)"
             transform="matrix(0.00173106,0,0,0.00483933,-0.28426449,-0.47781354)"
             style="stroke-width:0.620034"><g
               id="g1284"
               transform="translate(743.64465,342.76491)"
               style="stroke-width:0.620034"><path
                 d="m 0,0 c 0,4.229 5.498,7.653 12.271,7.653 6.772,0 12.268,-3.424 12.268,-7.653 0,-4.229 -5.496,-7.66 -12.268,-7.66 C 5.498,-7.66 0,-4.229 0,0"
                 style="fill:#1d70b8;fill-opacity:1;fill-rule:nonzero;stroke:none;stroke-width:0.620034"
                 id="path1286" /></g><g
               id="g1288"
               transform="translate(774.67205,342.76491)"
               style="stroke-width:0.620034"><path
                 d="m 0,0 c 0,2.811 2.605,5.096 5.819,5.096 3.212,0 5.827,-2.285 5.827,-5.096 0,-2.814 -2.615,-5.094 -5.827,-5.094 C 2.605,-5.094 0,-2.814 0,0"
                 style="fill:#1d70b8;fill-opacity:1;fill-rule:nonzero;stroke:none;stroke-width:0.620034"
                 id="path1290" /></g><g
               id="g1292"
               transform="translate(795.05195,342.76491)"
               style="stroke-width:0.620034"><path
                 d="M 0,0 C 0,2.596 2.1,4.699 4.7,4.699 7.292,4.699 9.397,2.596 9.397,0 9.397,-2.597 7.292,-4.701 4.7,-4.701 2.1,-4.701 0,-2.597 0,0"
                 style="fill:#1d70b8;fill-opacity:1;fill-rule:nonzero;stroke:none;stroke-width:0.620034"
                 id="path1294" /></g><g
               id="g1296"
               transform="translate(643.15645,342.76491)"
               style="stroke-width:0.620034"><path
                 d="m 0,0 c 0,4.174 3.383,7.555 7.556,7.555 h 79.581 c 4.172,0 7.552,-3.381 7.552,-7.555 0,-4.172 -3.38,-7.558 -7.552,-7.558 H 7.556 C 3.383,-7.558 0,-4.172 0,0"
                 style="fill:#1d70b8;fill-opacity:1;fill-rule:nonzero;stroke:none;stroke-width:0.620034"
                 id="path1298" /></g><g
               id="g1300"
               transform="translate(726.52355,373.48561)"
               style="stroke-width:0.620034"><path
                 d="m 0,0 c 0,4.235 5.494,7.665 12.264,7.665 6.777,0 12.272,-3.43 12.272,-7.665 0,-4.229 -5.495,-7.658 -12.272,-7.658 C 5.494,-7.658 0,-4.229 0,0"
                 style="fill:#dedc00;fill-opacity:1;fill-rule:nonzero;stroke:none;stroke-width:0.620034"
                 id="path1302" /></g><g
               id="g1304"
               transform="translate(757.54895,373.48561)"
               style="stroke-width:0.620034"><path
                 d="m 0,0 c 0,2.819 2.603,5.099 5.816,5.099 3.217,0 5.826,-2.28 5.826,-5.099 0,-2.812 -2.609,-5.09 -5.826,-5.09 C 2.603,-5.09 0,-2.812 0,0"
                 style="fill:#dedc00;fill-opacity:1;fill-rule:nonzero;stroke:none;stroke-width:0.620034"
                 id="path1306" /></g><g
               id="g1308"
               transform="translate(777.92595,373.48561)"
               style="stroke-width:0.620034"><path
                 d="M 0,0 C 0,2.602 2.099,4.708 4.697,4.708 7.292,4.708 9.399,2.602 9.399,0 9.399,-2.598 7.292,-4.7 4.697,-4.7 2.099,-4.7 0,-2.598 0,0"
                 style="fill:#dedc00;fill-opacity:1;fill-rule:nonzero;stroke:none;stroke-width:0.620034"
                 id="path1310" /></g><g
               id="g1312"
               transform="translate(626.03045,373.49141)"
               style="stroke-width:0.620034"><path
                 d="m 0,0 c 0,4.172 3.382,7.55 7.558,7.55 h 79.581 c 4.171,0 7.555,-3.378 7.555,-7.556 0,-4.168 -3.384,-7.553 -7.555,-7.553 H 7.558 C 3.382,-7.559 0,-4.174 0,0"
                 style="fill:#dedc00;fill-opacity:1;fill-rule:nonzero;stroke:none;stroke-width:0.620034"
                 id="path1314" /></g><g
               id="g1316"
               transform="translate(769.83805,404.60571)"
               style="stroke-width:0.620034"><path
                 d="m 0,0 c 0,4.226 5.494,7.655 12.267,7.655 6.776,0 12.266,-3.429 12.266,-7.655 0,-4.231 -5.49,-7.662 -12.266,-7.662 C 5.494,-7.662 0,-4.231 0,0"
                 style="fill:#00a19a;fill-opacity:1;fill-rule:nonzero;stroke:none;stroke-width:0.620034"
                 id="path1318" /></g><g
               id="g1320"
               transform="translate(800.86445,404.60571)"
               style="stroke-width:0.620034"><path
                 d="M 0,0 C 0,2.811 2.606,5.093 5.814,5.093 9.034,5.093 11.64,2.811 11.64,0 11.64,-2.816 9.034,-5.094 5.814,-5.094 2.606,-5.094 0,-2.816 0,0"
                 style="fill:#00a19a;fill-opacity:1;fill-rule:nonzero;stroke:none;stroke-width:0.620034"
                 id="path1322" /></g><g
               id="g1324"
               transform="translate(821.23945,404.60571)"
               style="stroke-width:0.620034"><path
                 d="M 0,0 C 0,2.594 2.104,4.699 4.698,4.699 7.296,4.699 9.403,2.594 9.403,0 9.403,-2.601 7.296,-4.701 4.698,-4.701 2.104,-4.701 0,-2.601 0,0"
                 style="fill:#00a19a;fill-opacity:1;fill-rule:nonzero;stroke:none;stroke-width:0.620034"
                 id="path1326" /></g><g
               id="g1328"
               transform="translate(669.34395,404.60571)"
               style="stroke-width:0.620034"><path
                 d="M 0,0 C 0,4.173 3.389,7.553 7.556,7.553 H 87.14 c 4.174,0 7.554,-3.38 7.554,-7.553 0,-4.173 -3.38,-7.558 -7.554,-7.558 H 7.556 C 3.389,-7.558 0,-4.173 0,0"
                 style="fill:#00a19a;fill-opacity:1;fill-rule:nonzero;stroke:none;stroke-width:0.620034"
                 id="path1330" /></g><g
               id="g1332"
               transform="translate(706.37905,442.74921)"
               style="stroke-width:0.620034"><path
                 d="m 0,0 c -4.227,0 -7.658,5.497 -7.658,12.269 0,6.775 3.431,12.273 7.658,12.273 4.232,0 7.657,-5.498 7.657,-12.273 C 7.657,5.497 4.232,0 0,0"
                 style="fill:#1d70b8;fill-opacity:1;fill-rule:nonzero;stroke:none;stroke-width:0.620034"
                 id="path1334" /></g><g
               id="g1336"
               transform="translate(706.37905,473.77561)"
               style="stroke-width:0.620034"><path
                 d="m 0,0 c -2.813,0 -5.09,2.604 -5.09,5.819 0,3.214 2.277,5.826 5.09,5.826 2.813,0 5.098,-2.612 5.098,-5.826 C 5.098,2.604 2.813,0 0,0"
                 style="fill:#1d70b8;fill-opacity:1;fill-rule:nonzero;stroke:none;stroke-width:0.620034"
                 id="path1338" /></g><g
               id="g1340"
               transform="translate(706.37905,494.15451)"
               style="stroke-width:0.620034"><path
                 d="m 0,0 c -2.598,0 -4.699,2.101 -4.699,4.701 0,2.592 2.101,4.697 4.699,4.697 2.6,0 4.701,-2.105 4.701,-4.697 C 4.701,2.101 2.6,0 0,0"
                 style="fill:#1d70b8;fill-opacity:1;fill-rule:nonzero;stroke:none;stroke-width:0.620034"
                 id="path1342" /></g><g
               id="g1344"
               transform="translate(706.37905,342.26101)"
               style="stroke-width:0.620034"><path
                 d="m 0,0 c -4.17,0 -7.554,3.385 -7.554,7.557 v 79.58 c 0,4.172 3.384,7.55 7.554,7.55 4.174,0 7.555,-3.378 7.555,-7.55 V 7.557 C 7.555,3.385 4.174,0 0,0"
                 style="fill:#1d70b8;fill-opacity:1;fill-rule:nonzero;stroke:none;stroke-width:0.620034"
                 id="path1346" /></g><g
               id="g1348"
               transform="translate(675.65545,425.62811)"
               style="stroke-width:0.620034"><path
                 d="m 0,0 c -4.232,0 -7.662,5.493 -7.662,12.264 0,6.775 3.43,12.272 7.662,12.272 4.234,0 7.661,-5.497 7.661,-12.272 C 7.661,5.493 4.234,0 0,0"
                 style="fill:#dedc00;fill-opacity:1;fill-rule:nonzero;stroke:none;stroke-width:0.620034"
                 id="path1350" /></g><g
               id="g1352"
               transform="translate(675.65545,456.65211)"
               style="stroke-width:0.620034"><path
                 d="m 0,0 c -2.813,0 -5.093,2.602 -5.093,5.817 0,3.219 2.28,5.824 5.093,5.824 2.815,0 5.094,-2.605 5.094,-5.824 C 5.094,2.602 2.815,0 0,0"
                 style="fill:#dedc00;fill-opacity:1;fill-rule:nonzero;stroke:none;stroke-width:0.620034"
                 id="path1354" /></g><g
               id="g1356"
               transform="translate(675.65545,477.02711)"
               style="stroke-width:0.620034"><path
                 d="m 0,0 c -2.601,0 -4.7,2.1 -4.7,4.703 0,2.591 2.099,4.704 4.7,4.704 2.599,0 4.708,-2.113 4.708,-4.704 C 4.708,2.1 2.599,0 0,0"
                 style="fill:#dedc00;fill-opacity:1;fill-rule:nonzero;stroke:none;stroke-width:0.620034"
                 id="path1358" /></g><g
               id="g1360"
               transform="translate(675.65545,325.13401)"
               style="stroke-width:0.620034"><path
                 d="m 0,0 c -4.176,0 -7.556,3.385 -7.556,7.556 v 79.583 c 0,4.171 3.38,7.556 7.556,7.556 4.172,0 7.555,-3.385 7.555,-7.556 V 7.556 C 7.555,3.385 4.172,0 0,0"
                 style="fill:#dedc00;fill-opacity:1;fill-rule:nonzero;stroke:none;stroke-width:0.620034"
                 id="path1362" /></g><g
               id="g1364"
               transform="translate(645.77655,470.91281)"
               style="stroke-width:0.620034"><path
                 d="m 0,0 c -4.229,0 -7.661,5.492 -7.661,12.265 0,6.777 3.432,12.268 7.661,12.268 4.228,0 7.656,-5.491 7.656,-12.268 C 7.656,5.492 4.228,0 0,0"
                 style="fill:#00a19a;fill-opacity:1;fill-rule:nonzero;stroke:none;stroke-width:0.620034"
                 id="path1366" /></g><g
               id="g1368"
               transform="translate(645.77655,501.93971)"
               style="stroke-width:0.620034"><path
                 d="m 0,0 c -2.815,0 -5.098,2.602 -5.098,5.817 0,3.214 2.283,5.819 5.098,5.819 2.811,0 5.092,-2.605 5.092,-5.819 C 5.092,2.602 2.811,0 0,0"
                 style="fill:#00a19a;fill-opacity:1;fill-rule:nonzero;stroke:none;stroke-width:0.620034"
                 id="path1370" /></g><g
               id="g1372"
               transform="translate(645.77655,522.31081)"
               style="stroke-width:0.620034"><path
                 d="M 0,0 C -2.6,0 -4.701,2.104 -4.701,4.702 -4.701,7.3 -2.6,9.409 0,9.409 2.594,9.409 4.701,7.3 4.701,4.702 4.701,2.104 2.594,0 0,0"
                 style="fill:#00a19a;fill-opacity:1;fill-rule:nonzero;stroke:none;stroke-width:0.620034"
                 id="path1374" /></g><g
               id="g1376"
               transform="translate(645.77655,370.41721)"
               style="stroke-width:0.620034"><path
                 d="m 0,0 c -4.172,0 -7.555,3.386 -7.555,7.559 v 79.58 c 0,4.176 3.383,7.558 7.555,7.558 4.172,0 7.555,-3.382 7.555,-7.558 V 7.559 C 7.555,3.386 4.172,0 0,0"
                 style="fill:#00a19a;fill-opacity:1;fill-rule:nonzero;stroke:none;stroke-width:0.620034"
                 id="path1378" /></g></g></g></g></g></g></svg>
